#N canvas 0 48 1920 1032 10;
#N canvas 0 48 1920 1032 patch 0;
#X obj 38 73 \$0;
#X obj 38 42 loadbang;
#X obj 179 73 \$0;
#X obj 38 136 print PD;
#X obj 179 136 print PD;
#X msg 38 103 PATCH-OPENED: \$1;
#X msg 179 103 PATCH-CLOSED: \$1;
#X text 176 41 [ closebang ];
#X text 88 16 comment;
#X connect 0 0 5 0;
#X connect 1 0 0 0;
#X connect 2 0 6 0;
#X connect 5 0 3 0;
#X connect 6 0 4 0;
#X restore 540 115 pd patch open close;
#X obj 619 213 print;
#X obj 422 191 f;
#X obj 422 219 s float_test;
#X msg 620 192 helloworld!;
#X obj 531 209 s bang_test;
#X obj 532 186 r send_bang;
#X obj 422 167 r send_float;
#X obj 621 171 r ask_hello_world;
#X msg 753 198 \; message_test test 1 2 3 4;
#X obj 1037 295 switch~;
#X obj 1005 192 r send_switch;
#X obj 751 177 r send_message_bang;
#X msg 1034 256 0;
#X obj 1148 134 bang~;
#X obj 1126 186 print;
#X msg 989 256 1;
#X msg 1137 160 switch_test;
#X connect 2 0 3 0;
#X connect 4 0 1 0;
#X connect 6 0 5 0;
#X connect 7 0 2 0;
#X connect 8 0 4 0;
#X connect 11 0 13 0;
#X connect 12 0 9 0;
#X connect 13 0 10 0;
#X connect 14 0 17 0;
#X connect 16 0 10 0;
#X connect 17 0 15 0;
