#N canvas 0 48 1920 1032 10;
#X obj 539 345 print;
#X msg 539 322 Hello World!;
#X obj 539 298 r ask_hello_world;
#X obj 671 308 r send_bang;
#X obj 671 329 s receive_bang;
#X obj 774 325 + 8;
#X obj 769 347 s send_math;
#X obj 770 301 r do_math;
#X connect 1 0 0 0;
#X connect 2 0 1 0;
#X connect 3 0 4 0;
#X connect 5 0 6 0;
#X connect 7 0 5 0;
